<svg width="1450" height="1300" viewBox="0 0 1450 1300" fill="none" xmlns="http://www.w3.org/2000/svg">
<path fill-rule="evenodd" clip-rule="evenodd" d="M9.22876 12.2037L0 0.880897V1300H0.107934L10.0805 1287.76L19.9807 1299.91L29.8809 1287.76L39.8534 1300H40.6526L50.6251 1287.76L60.4873 1299.86L69.955 1287.76L79.4223 1299.86L89.2842 1287.76L99.1849 1299.91L109.086 1287.76L118.986 1299.91L128.886 1287.76L138.786 1299.91L148.687 1287.76L158.659 1300H159.458L169.431 1287.76L179.293 1299.86L188.76 1287.76L198.228 1299.86L208.09 1287.76L218.062 1300H218.861L228.834 1287.76L238.734 1299.91L248.635 1287.76L258.535 1299.91L268.435 1287.76L278.336 1299.91L288.237 1287.76L298.21 1300H299.007L308.98 1287.76L318.842 1299.86L328.31 1287.76L337.778 1299.86L347.64 1287.76L357.54 1299.91L367.44 1287.76L377.341 1299.91L387.241 1287.76L397.142 1299.91L407.042 1287.76L417.015 1300H417.814L427.787 1287.76L437.648 1299.86L447.116 1287.76L456.583 1299.86L466.445 1287.76L476.418 1300H477.217L487.189 1287.76L497.089 1299.91L506.99 1287.76L516.89 1299.91L526.791 1287.76L536.764 1300H537.562L547.535 1287.76L557.435 1299.91L567.336 1287.76L577.198 1299.86L586.665 1287.76L596.132 1299.86L605.994 1287.76L615.895 1299.91L625.796 1287.76L635.696 1299.91L645.596 1287.76L655.569 1300H656.368L666.34 1287.76L676.24 1299.91L686.141 1287.76L696.003 1299.86L705.471 1287.76L715.045 1300H715.698L725.271 1287.76L734.739 1299.86L744.601 1287.76L754.502 1299.91L764.402 1287.76L774.375 1300H775.174L785.146 1287.76L795.047 1299.91L804.947 1287.76L814.847 1299.91L824.747 1287.76L834.72 1300H835.447L845.021 1287.76L854.488 1299.86L864.35 1287.76L874.25 1299.91L884.151 1287.76L894.124 1300H894.922L904.895 1287.76L914.795 1299.91L924.696 1287.76L934.597 1299.91L944.497 1287.76L954.359 1299.86L963.826 1287.76L973.4 1300H974.054L983.628 1287.76L993.095 1299.86L1002.96 1287.76L1012.93 1300H1013.73L1023.7 1287.76L1033.6 1299.91L1043.5 1287.76L1053.4 1299.91L1063.3 1287.76L1073.2 1299.91L1083.1 1287.76L1092.96 1299.86L1102.43 1287.76L1111.9 1299.86L1121.76 1287.76L1131.73 1300H1132.53L1142.51 1287.76L1152.41 1299.91L1162.31 1287.76L1172.21 1299.91L1182.11 1287.76L1192.01 1299.91L1201.91 1287.76L1211.81 1299.91L1221.71 1287.76L1231.57 1299.86L1241.04 1287.76L1250.61 1300H1251.34L1261.31 1287.76L1271.21 1299.91L1281.11 1287.76L1291.01 1299.91L1300.91 1287.76L1310.81 1299.91L1320.71 1287.76L1330.62 1299.91L1340.52 1287.76L1350.38 1299.86L1359.85 1287.76L1369.42 1300H1370.15L1380.12 1287.76L1390.02 1299.91L1399.92 1287.76L1409.82 1299.91L1419.72 1287.76L1429.69 1300H1429.95L1439.92 1287.76L1449.89 1300H1450V0.000244141H1449.16L1439.21 12.2035L1429.27 0.00889013L1419.33 12.2035L1409.39 0.000244141H1408.61L1398.66 12.2035L1388.8 0.102367L1379.33 12.2035L1369.86 0.102659L1360 12.2035L1350.1 0.055094L1340.2 12.2035L1330.3 0.0556931L1320.4 12.2035L1310.49 0.0551689L1300.59 12.2035L1290.65 0.000244141H1289.79L1279.85 12.2035L1269.98 0.102749L1260.51 12.2035L1251.05 0.10243L1241.18 12.2035L1231.24 0.000244141H1230.38L1220.44 12.2035L1210.54 0.0547945L1200.63 12.2035L1190.73 0.0559177L1180.83 12.2035L1170.93 0.0546447L1161.03 12.2035L1151.08 0.000244141H1150.23L1140.28 12.2035L1130.42 0.102367L1120.95 12.2035L1111.48 0.102353L1101.62 12.2035L1091.72 0.0553935L1081.82 12.2035L1071.92 0.0553935L1062.01 12.2035L1052.11 0.055094L1042.21 12.2035L1032.26 0.000244141H1031.41L1021.46 12.2035L1011.6 0.102825L1002.13 12.2035L992.664 0.102506L982.802 12.2035L972.855 0.000244141H972.002L962.056 12.2035L952.154 0.0555806L942.253 12.2035L932.351 0.0549066L922.449 12.2035L912.503 0.000244141H911.65L901.704 12.2035L891.803 0.0552062L881.901 12.2035L872.038 0.102596L862.57 12.2035L853.101 0.102544L843.238 12.2035L833.337 0.0551313L823.435 12.2035L813.534 0.0553185L803.632 12.2035L793.686 0.000244141H792.833L782.886 12.2035L772.985 0.0555431L763.084 12.2035L753.22 0.102252L743.752 12.2035L734.203 0.000244141H733.498L723.949 12.2035L714.48 0.102276L704.617 12.2035L694.716 0.055281L684.814 12.2035L674.868 0.000244141H674.015L664.068 12.2035L654.167 0.0553185L644.265 12.2035L634.364 0.0556929L624.463 12.2035L614.517 0.000244141H613.736L604.188 12.2035L594.719 0.102735L584.857 12.2035L574.955 0.0551687L565.054 12.2035L555.107 0.000244141H554.254L544.308 12.2035L534.406 0.0550564L524.504 12.2035L514.603 0.0552436L504.701 12.2035L494.839 0.102691L485.37 12.2035L475.822 0.000244141H475.115L465.567 12.2035L456.099 0.102525L446.236 12.2035L436.289 0.000244141H435.436L425.49 12.2035L415.589 0.0553559L405.687 12.2035L395.786 0.0555431L385.885 12.2035L375.983 0.0551313L366.081 12.2035L356.218 0.102653L346.75 12.2035L337.282 0.102487L327.419 12.2035L317.472 0.000244141H316.619L306.673 12.2035L296.771 0.0552249L286.869 12.2035L276.968 0.0553372L267.067 12.2035L257.165 0.0555244L247.264 12.2035L237.362 0.0550002L227.461 12.2035L217.598 0.10294L208.13 12.2035L198.581 0.000244141H197.801L187.855 12.2035L177.953 0.0555619L168.052 12.2035L158.15 0.0548505L148.248 12.2035L138.347 0.0554308L128.446 12.2035L118.544 0.0552578L108.643 12.2035L98.7797 0.102515L89.3113 12.2035L79.7628 0.000244141H78.9832L69.0368 12.2035L59.1355 0.0555174L49.2342 12.2035L39.3326 0.0551481L29.4308 12.2037L19.4843 0.000244141H19.1753L9.22876 12.2037Z" fill="#F2F2F2"/>
</svg>
