<svg width="1520" height="1000" viewBox="0 0 1520 1000" fill="none" xmlns="http://www.w3.org/2000/svg">
<path fill-rule="evenodd" clip-rule="evenodd" d="M9.6743 9.38773L0 0.677844V1000H0.113079L10.5671 990.587L20.9452 999.932L31.3234 990.587L41.7774 1000H42.6152L53.0691 990.587L63.4074 999.896L73.3321 990.587L83.2566 999.896L93.5945 990.587L103.973 999.932L114.352 990.587L124.73 999.932L135.108 990.587L145.486 999.932L155.865 990.587L166.319 1000H167.156L177.61 990.587L187.948 999.896L197.873 990.587L207.797 999.896L218.135 990.587L228.589 1000H229.427L239.881 990.587L250.26 999.932L260.638 990.587L271.016 999.932L281.394 990.587L291.773 999.932L302.152 990.587L312.606 1000H313.442L323.896 990.587L334.235 999.896L344.159 990.587L354.084 999.896L364.422 990.587L374.801 999.932L385.179 990.587L395.557 999.932L405.935 990.587L416.314 999.932L426.693 990.587L437.147 1000H437.984L448.438 990.587L458.776 999.896L468.701 990.587L478.625 999.896L488.963 990.587L499.417 1000H500.255L510.709 990.587L521.087 999.932L531.465 990.587L541.844 999.932L552.222 990.587L562.676 1000H563.513L573.967 990.587L584.346 999.932L594.724 990.587L605.062 999.896L614.987 990.587L624.911 999.896L635.249 990.587L645.628 999.932L656.007 990.587L666.385 999.932L676.763 990.587L687.217 1000H688.054L698.508 990.587L708.887 999.932L719.265 990.587L729.603 999.896L739.528 990.587L749.564 1000H750.249L760.285 990.587L770.209 999.896L780.547 990.587L790.926 999.932L801.305 990.587L811.758 1000H812.596L823.05 990.587L833.428 999.932L843.807 990.587L854.185 999.932L864.563 990.587L875.017 1000H875.779L885.815 990.587L895.739 999.896L906.077 990.587L916.456 999.932L926.834 990.587L937.288 1000H938.125L948.579 990.587L958.958 999.932L969.337 990.587L979.715 999.932L990.093 990.587L1000.43 999.896L1010.36 990.587L1020.39 1000H1021.08L1031.11 990.587L1041.04 999.896L1051.38 990.587L1061.83 1000H1062.67L1073.12 990.587L1083.5 999.932L1093.88 990.587L1104.26 999.932L1114.63 990.587L1125.01 999.932L1135.39 990.587L1145.73 999.896L1155.65 990.587L1165.58 999.896L1175.92 990.587L1186.37 1000H1187.21L1197.66 990.587L1208.04 999.932L1218.42 990.587L1228.8 999.932L1239.18 990.587L1249.55 999.932L1259.93 990.587L1270.31 999.932L1280.69 990.587L1291.03 999.895L1300.95 990.587L1310.99 1000H1311.75L1322.2 990.587L1332.58 999.932L1342.96 990.587L1353.34 999.932L1363.72 990.587L1374.09 999.932L1384.47 990.587L1394.85 999.932L1405.23 990.587L1415.57 999.896L1425.49 990.587L1435.53 1000H1436.29L1446.74 990.587L1457.12 999.932L1467.5 990.587L1477.88 999.932L1488.26 990.587L1498.71 1000H1498.98L1509.43 990.587L1519.89 1000H1520V0H1519.12L1508.69 9.38728L1498.27 0.00689169L1487.85 9.38728L1477.43 0H1476.61L1466.19 9.38728L1455.85 0.0787486L1445.92 9.38728L1435.99 0.0789682L1425.66 9.38728L1415.28 0.0423898L1404.9 9.38728L1394.52 0.0428843L1384.14 9.38728L1373.76 0.0424447L1363.38 9.38728L1352.95 0H1352.06L1341.63 9.38728L1331.29 0.0789729L1321.37 9.38728L1311.44 0.078856L1301.1 9.38728L1290.68 0H1289.78L1279.35 9.38728L1268.97 0.04217L1258.6 9.38728L1248.22 0.0430492L1237.84 9.38728L1227.46 0.0420601L1217.08 9.38728L1206.65 0H1205.76L1195.33 9.38728L1184.99 0.0786925L1175.07 9.38728L1165.14 0.0787439L1154.8 9.38728L1144.42 0.0426645L1134.04 9.38728L1123.66 0.0426096L1113.28 9.38728L1102.9 0.0424447L1092.52 9.38728L1082.1 0H1081.2L1070.78 9.38728L1060.44 0.0790851L1050.51 9.38728L1040.59 0.0787999L1030.25 9.38728L1019.82 0H1018.93L1008.5 9.38728L998.12 0.0426935L987.741 9.38728L977.361 0.042199L966.982 9.38728L956.555 0H955.661L945.235 9.38728L934.855 0.0424188L924.476 9.38728L914.136 0.0789183L904.211 9.38728L894.285 0.0788007L883.946 9.38728L873.567 0.0423638L863.187 9.38728L852.808 0.0425836L842.428 9.38728L832.001 0H831.107L820.681 9.38728L810.301 0.0427485L799.922 9.38728L789.583 0.0785818L779.657 9.38728L769.647 0H768.908L758.898 9.38728L748.973 0.0786885L738.633 9.38728L728.254 0.0424737L717.874 9.38728L707.448 0H706.553L696.127 9.38728L685.747 0.0425287L675.368 9.38728L664.989 0.0428034L654.609 9.38728L644.183 0H643.365L633.356 9.38728L623.43 0.0790249L613.091 9.38728L602.712 0.0423638L592.332 9.38728L581.905 0H581.011L570.585 9.38728L560.205 0.0423638L549.825 9.38728L539.446 0.0424737L529.066 9.38728L518.727 0.0789743L508.802 9.38728L498.792 0H498.052L488.043 9.38728L478.117 0.0788426L467.778 9.38728L457.351 0H456.458L446.031 9.38728L435.651 0.0425698L425.272 9.38728L414.893 0.0427347L404.513 9.38728L394.134 0.0423775L383.754 9.38728L373.415 0.0789463L363.49 9.38728L353.564 0.0788426L343.225 9.38728L332.798 0H331.904L321.477 9.38728L311.098 0.0424874L300.718 9.38728L290.339 0.0425149L279.959 9.38728L269.58 0.0427072L259.201 9.38728L248.821 0.0422951L238.441 9.38728L228.103 0.0791704L218.177 9.38728L208.168 0H207.35L196.924 9.38728L186.544 0.0427345L176.165 9.38728L165.785 0.042185L155.405 9.38728L145.026 0.0426246L134.647 9.38728L124.267 0.0424838L113.888 9.38728L103.548 0.078834L93.6228 9.38728L83.6132 0H82.7963L72.3696 9.38728L61.9903 0.0427019L51.6111 9.38728L41.2316 0.042512L30.8516 9.38773L20.4244 0H20.1015L9.6743 9.38773Z" fill="#F2F2F2"/>
</svg>
